<svg width="223" height="35" viewBox="0 0 223 35" fill="none" xmlns="http://www.w3.org/2000/svg">
<g clip-path="url(#clip0)">
<path d="M49.2403 25.2564C46.9361 25.2564 45.1537 24.3924 43.8931 22.6642C42.6325 20.9361 42.0022 18.8449 42.0022 16.3904C42.0022 13.8943 42.6409 11.8113 43.9182 10.1417C45.1955 8.47199 47.0154 7.63715 49.378 7.63715C51.7656 7.63715 53.5647 8.53043 54.7752 10.317C55.9941 12.0952 56.6035 14.1322 56.6035 16.428C56.6035 18.9075 55.9774 20.9987 54.7251 22.7018C53.4729 24.4049 51.6446 25.2564 49.2403 25.2564ZM49.353 10.9055C47.2492 10.9055 46.1973 12.7505 46.1973 16.4405C46.1973 20.1389 47.2492 21.988 49.353 21.988C51.39 21.988 52.4085 20.143 52.4085 16.453C52.4085 12.7547 51.39 10.9055 49.353 10.9055ZM63.2781 21.6123H70.0778V24.9934H59.2208V7.90012H63.2781V21.6123ZM76.1387 7.90012V24.9934H72.144V7.90012H76.1387ZM92.2804 7.90012L87.1336 24.9934H82.8258L77.6916 7.90012H81.9492L85.3679 20.1222L88.9118 7.90012H92.2804ZM106.043 11.156H97.8905V14.6623H104.302V17.8806H97.8905V21.6123H106.043V24.9934H93.8206V7.90012H106.043V11.156ZM112.454 7.90012V24.9934H108.46V7.90012H112.454ZM119.93 18.2187V24.9934H115.898V7.90012H123.411C124.797 7.90012 125.908 8.06292 126.742 8.3885C127.586 8.70574 128.283 9.2943 128.834 10.1542C129.385 11.0141 129.66 11.97 129.66 13.0219C129.66 15.0756 128.671 16.549 126.692 17.4423L129.848 24.9934H125.428L122.798 18.2187H119.93ZM119.93 10.9431V15.301H122.385C123.186 15.301 123.766 15.2467 124.125 15.1382C124.493 15.0213 124.818 14.7708 125.102 14.3868C125.386 13.9944 125.528 13.5478 125.528 13.0469C125.528 12.571 125.386 12.1453 125.102 11.7696C124.818 11.3939 124.509 11.1643 124.175 11.0809C123.841 10.989 123.215 10.9431 122.297 10.9431H119.93ZM141.156 7.90012L146.503 24.9934H142.195L141.156 21.4746H135.621L134.544 24.9934H131.038L136.51 7.90012H141.156ZM136.585 18.3189H140.217L138.401 12.3206L136.585 18.3189ZM165.6 7.90012V11.2812H161.367V24.9934H157.31V11.2812H153.052V7.90012H165.6ZM171.348 18.2187V24.9934H167.316V7.90012H174.829C176.215 7.90012 177.325 8.06292 178.16 8.3885C179.003 8.70574 179.7 9.2943 180.251 10.1542C180.802 11.0141 181.078 11.97 181.078 13.0219C181.078 15.0756 180.089 16.549 178.11 17.4423L181.266 24.9934H176.845L174.216 18.2187H171.348ZM171.348 10.9431V15.301H173.802C174.604 15.301 175.184 15.2467 175.543 15.1382C175.91 15.0213 176.236 14.7708 176.52 14.3868C176.804 13.9944 176.945 13.5478 176.945 13.0469C176.945 12.571 176.804 12.1453 176.52 11.7696C176.236 11.3939 175.927 11.1643 175.593 11.0809C175.259 10.989 174.633 10.9431 173.715 10.9431H171.348Z" fill="#4F4F4F"/>
<path d="M196.431 8.56461V19.2088C196.431 20.9286 196.234 22.21 195.842 23.0532C195.45 23.8881 194.723 24.5768 193.663 25.1195C192.611 25.6538 191.263 25.9209 189.618 25.9209C187.974 25.9209 186.663 25.6788 185.686 25.1946C184.718 24.7104 183.992 24.0216 183.507 23.1284C183.023 22.2351 182.781 20.9286 182.781 19.2088V8.56461H187.126V19.2088C187.126 20.1271 187.201 20.8033 187.352 21.2375C187.51 21.6716 187.819 22.018 188.278 22.2768C188.746 22.5273 189.318 22.6525 189.994 22.6525C190.745 22.6525 191.355 22.5273 191.822 22.2768C192.298 22.0264 192.611 21.6966 192.761 21.2875C192.92 20.8701 192.999 20.1772 192.999 19.2088V8.56461H196.431ZM211.42 12.3214L208.014 13.4609C207.555 12.1085 206.582 11.4323 205.096 11.4323C203.51 11.4323 202.717 11.9457 202.717 12.9726C202.717 13.3816 202.863 13.7281 203.155 14.0119C203.456 14.2958 204.128 14.5421 205.171 14.7508C206.916 15.1014 208.193 15.4562 209.003 15.8152C209.813 16.1742 210.493 16.7544 211.044 17.5558C211.604 18.3489 211.883 19.238 211.883 20.2231C211.883 21.7676 211.287 23.1033 210.093 24.2304C208.907 25.3574 207.146 25.9209 204.808 25.9209C203.055 25.9209 201.561 25.5244 200.325 24.7313C199.098 23.9298 198.288 22.7443 197.896 21.1748L201.602 20.3358C202.02 21.9304 203.18 22.7276 205.084 22.7276C206.002 22.7276 206.687 22.5523 207.137 22.2017C207.588 21.8427 207.814 21.4169 207.814 20.9244C207.814 20.4235 207.609 20.0353 207.2 19.7598C206.791 19.4843 206.002 19.2255 204.833 18.9834C202.654 18.5326 201.102 17.919 200.175 17.1426C199.248 16.3578 198.785 15.2141 198.785 13.7114C198.785 12.192 199.336 10.9105 200.438 9.86696C201.548 8.82341 203.051 8.30164 204.946 8.30164C208.302 8.30164 210.46 9.64156 211.42 12.3214Z" fill="#4F4F4F"/>
<path d="M224.657 8.56461V11.9457H220.425V25.6579H216.368V11.9457H212.11V8.56461H224.657Z" fill="#4F4F4F"/>
<path fill-rule="evenodd" clip-rule="evenodd" d="M21.7949 32.3603H4.78414C2.25911 32.3603 0.199219 30.3004 0.199219 27.7753V19.27C2.85714 21.4628 6.17955 22.7917 9.90065 22.7917C10.0335 22.7917 10.2329 22.7917 10.3658 22.7917H21.7949V32.3603ZM32.0943 22.7917V27.7089C32.0943 30.2339 30.0344 32.2938 27.5094 32.2938H26.5127V22.7917H32.0943ZM23.9877 0.66449H27.443C29.968 0.66449 32.0279 2.72438 32.0279 5.24941V17.8746H20.931C23.589 15.0173 25.2502 11.1633 25.2502 6.84417C25.2502 4.71783 24.785 2.59149 23.9877 0.66449ZM4.78414 0.66449H17.5422C18.9376 2.39214 19.735 4.58493 19.735 6.97706C19.735 12.5587 15.2829 17.0772 9.8342 17.0772C5.11638 17.0772 1.19594 13.7548 0.199219 9.2363V5.31586C0.199219 4.91717 0.265667 4.51848 0.332115 4.18624C0.398563 4.05335 0.398563 3.854 0.465011 3.7211C1.12949 1.927 2.85714 0.66449 4.78414 0.66449Z" fill="#D40000"/>
</g>
<defs>
<clipPath id="clip0">
<rect width="223" height="34.2872" fill="white"/>
</clipPath>
</defs>
</svg>
