<?xml version="1.0" encoding="utf-8"?>
<!-- Generator: Adobe Illustrator 23.0.3, SVG Export Plug-In . SVG Version: 6.00 Build 0)  -->
<svg version="1.1" id="Camada_1" xmlns="http://www.w3.org/2000/svg" xmlns:xlink="http://www.w3.org/1999/xlink" x="0px" y="0px"
	 viewBox="0 0 335.6 51.6" style="enable-background:new 0 0 335.6 51.6;" xml:space="preserve">
<style type="text/css">
	.st0{fill:#4F4F4F;}
	.st1{font-family:'FranklinGothic-Demi';}
	.st2{font-size:37.6263px;}
	.st3{fill-rule:evenodd;clip-rule:evenodd;fill:#D40000;}
	.st4{fill:none;stroke:#FFFFFF;stroke-width:0.5669;stroke-miterlimit:22.9256;}
</style>
<text transform="matrix(1 0 0 1.0522 61.8535 39.4805)" class="st0 st1 st2">OLIVEIRA TR</text>
<text transform="matrix(1 0 0 1.0522 268.7549 39.4805)" class="st0 st1 st2">US</text>
<text transform="matrix(1 0 0 1.0522 315.2109 39.4805)" class="st0 st1 st2">T</text>
<path class="st3" d="M32.8,50.5H7.2c-3.8,0-6.9-3.1-6.9-6.9V30.8c4,3.3,9,5.3,14.6,5.3c0.2,0,0.5,0,0.7,0h17.2V50.5z M48.3,36.1v7.4
	c0,3.8-3.1,6.9-6.9,6.9h-1.5V36.1H48.3z M36.1,2.8h5.2c3.8,0,6.9,3.1,6.9,6.9v19H31.5c4-4.3,6.5-10.1,6.5-16.6
	C38,8.9,37.3,5.7,36.1,2.8z M7.2,2.8h19.2c2.1,2.6,3.3,5.9,3.3,9.5c0,8.4-6.7,15.2-14.9,15.2c-7.1,0-13-5-14.5-11.8V9.8
	c0-0.6,0.1-1.2,0.2-1.7c0.1-0.2,0.1-0.5,0.2-0.7C1.7,4.7,4.3,2.8,7.2,2.8z"/>
<rect x="1.3" y="2.3" class="st4" width="47.3" height="0.3"/>
</svg>
