<svg id="Capa_1" enable-background="new 0 0 512 512" height="512" viewBox="0 0 512 512" width="512" xmlns="http://www.w3.org/2000/svg"><g><path d="m351 35v-5c0-16.542-13.458-30-30-30h-130c-16.542 0-30 13.458-30 30v5z"/><path d="m85.018 189 28.043 309.354c.701 7.728 7.179 13.646 14.939 13.646h256c7.76 0 14.238-5.918 14.938-13.646l28.044-309.354zm108.34 257.938c-8.273.752-15.549-5.352-16.297-13.581l-16-176c-.75-8.25 5.33-15.546 13.58-16.296 8.239-.75 15.547 5.33 16.297 13.581l16 176c.75 8.25-5.33 15.546-13.58 16.296zm77.642-14.938c0 8.284-6.716 15-15 15s-15-6.716-15-15v-176c0-8.284 6.716-15 15-15s15 6.716 15 15zm79.938-174.642-16 176c-.708 7.788-7.251 13.643-14.921 13.643-8.872 0-15.752-7.605-14.956-16.359l16-176c.75-8.25 8.036-14.333 16.297-13.581 8.25.751 14.33 8.047 13.58 16.297z"/><path d="m384 65c-6.139 0-244.099 0-256 0-43.561 0-79 35.439-79 79 0 8.284 6.716 15 15 15h384c8.284 0 15-6.716 15-15 0-43.561-35.439-79-79-79z"/></g></svg>