<?xml version="1.0" encoding="utf-8"?>
<!-- Generator: Adobe Illustrator 23.0.3, SVG Export Plug-In . SVG Version: 6.00 Build 0)  -->
<svg version="1.1" id="Camada_1" xmlns="http://www.w3.org/2000/svg" xmlns:xlink="http://www.w3.org/1999/xlink" x="0px" y="0px"
	 viewBox="0 0 279.3 141.1" style="enable-background:new 0 0 279.3 141.1;" xml:space="preserve">
<style type="text/css">
	.st0{fill:#FFFFFF;}
	.st1{fill-rule:evenodd;clip-rule:evenodd;fill:#D40000;}
</style>
<g>
	<path class="st0" d="M12.2,141.1c-3.4,0-6.1-1.4-8-4.1c-1.9-2.7-2.8-6-2.8-9.9c0-3.9,1-7.2,2.9-9.8c1.9-2.6,4.6-3.9,8.2-3.9
		c3.6,0,6.3,1.4,8.1,4.2c1.8,2.8,2.7,6,2.7,9.6c0,3.9-0.9,7.2-2.8,9.9S15.8,141.1,12.2,141.1z M12.3,118.5c-3.1,0-4.7,2.9-4.7,8.7
		c0,5.8,1.6,8.7,4.7,8.7c3,0,4.6-2.9,4.6-8.7C16.9,121.4,15.4,118.5,12.3,118.5z"/>
	<path class="st0" d="M33.2,135.3h10.2v5.3H27.1v-26.9h6.1V135.3z"/>
	<path class="st0" d="M52.4,113.7v26.9h-6v-26.9H52.4z"/>
	<path class="st0" d="M76.6,113.7l-7.7,26.9h-6.4l-7.7-26.9h6.4l5.1,19.3l5.3-19.3H76.6z"/>
	<path class="st0" d="M97.2,118.8H85v5.5h9.6v5.1H85v5.9h12.2v5.3H78.9v-26.9h18.3V118.8z"/>
	<path class="st0" d="M106.7,113.7v26.9h-6v-26.9H106.7z"/>
	<path class="st0" d="M117.9,130v10.7h-6v-26.9h11.2c2.1,0,3.7,0.3,5,0.8c1.3,0.5,2.3,1.4,3.1,2.8s1.2,2.9,1.2,4.5
		c0,3.2-1.5,5.6-4.4,7l4.7,11.9h-6.6l-3.9-10.7H117.9z M117.9,118.5v6.9h3.7c1.2,0,2.1-0.1,2.6-0.3c0.5-0.2,1-0.6,1.5-1.2
		s0.6-1.3,0.6-2.1c0-0.7-0.2-1.4-0.6-2s-0.9-1-1.4-1.1c-0.5-0.1-1.4-0.2-2.8-0.2H117.9z"/>
	<path class="st0" d="M149.7,113.7l8,26.9h-6.4l-1.6-5.5h-8.3l-1.6,5.5h-5.3l8.2-26.9H149.7z M142.8,130.1h5.4l-2.7-9.4L142.8,130.1
		z"/>
	<path class="st0" d="M186.3,113.7v5.3h-6.3v21.6h-6.1V119h-6.4v-5.3H186.3z"/>
	<path class="st0" d="M194.9,130v10.7h-6v-26.9h11.2c2.1,0,3.7,0.3,5,0.8c1.3,0.5,2.3,1.4,3.1,2.8c0.8,1.4,1.2,2.9,1.2,4.5
		c0,3.2-1.5,5.6-4.4,7l4.7,11.9h-6.6l-3.9-10.7H194.9z M194.9,118.5v6.9h3.7c1.2,0,2.1-0.1,2.6-0.3c0.5-0.2,1-0.6,1.5-1.2
		s0.6-1.3,0.6-2.1c0-0.7-0.2-1.4-0.6-2s-0.9-1-1.4-1.1c-0.5-0.1-1.4-0.2-2.8-0.2H194.9z"/>
</g>
<g>
	<path class="st0" d="M233.8,113.7v16.8c0,2.7-0.3,4.7-0.9,6c-0.6,1.3-1.7,2.4-3.3,3.3c-1.6,0.8-3.6,1.3-6.1,1.3
		c-2.5,0-4.4-0.4-5.9-1.1c-1.5-0.8-2.5-1.8-3.3-3.3c-0.7-1.4-1.1-3.5-1.1-6.2v-16.8h6.5v16.8c0,1.4,0.1,2.5,0.3,3.2
		c0.2,0.7,0.7,1.2,1.4,1.6c0.7,0.4,1.5,0.6,2.6,0.6c1.1,0,2-0.2,2.7-0.6c0.7-0.4,1.2-0.9,1.4-1.6c0.2-0.7,0.3-1.7,0.3-3.3v-16.8
		H233.8z"/>
	<path class="st0" d="M256.3,119.6l-5.1,1.8c-0.7-2.1-2.1-3.2-4.4-3.2c-2.4,0-3.6,0.8-3.6,2.4c0,0.6,0.2,1.2,0.7,1.6
		c0.4,0.4,1.4,0.8,3,1.2c2.6,0.6,4.5,1.1,5.7,1.7c1.2,0.6,2.2,1.5,3.1,2.7c0.8,1.3,1.2,2.7,1.2,4.2c0,2.4-0.9,4.5-2.7,6.3
		c-1.8,1.8-4.4,2.7-7.9,2.7c-2.6,0-4.9-0.6-6.7-1.9c-1.8-1.3-3.1-3.1-3.6-5.6l5.5-1.3c0.6,2.5,2.4,3.8,5.2,3.8
		c1.4,0,2.4-0.3,3.1-0.8c0.7-0.6,1-1.2,1-2c0-0.8-0.3-1.4-0.9-1.8c-0.6-0.4-1.8-0.8-3.5-1.2c-3.3-0.7-5.6-1.7-7-2.9
		c-1.4-1.2-2.1-3-2.1-5.4c0-2.4,0.8-4.4,2.5-6.1c1.7-1.6,3.9-2.5,6.7-2.5C251.6,113.3,254.8,115.4,256.3,119.6z"/>
</g>
<g>
	<path class="st0" d="M277.3,113.7v5.3h-6.3v21.6h-6.1V119h-6.4v-5.3H277.3z"/>
</g>
<path class="st1" d="M152.5,90.2h-47.3c-7.1,0-12.8-5.8-12.8-12.8V53.7c7.4,6.2,16.7,9.9,27,9.9c0.4,0,0.9,0,1.3,0h31.8V90.2z
	 M181.2,63.6v13.8c0,7.1-5.8,12.8-12.8,12.8h-2.7V63.6H181.2z M158.7,2h9.7c7.1,0,12.8,5.8,12.8,12.8V50h-31.1
	c7.4-8,12-18.8,12-30.7C162.1,13.2,160.9,7.3,158.7,2z M105.2,2h35.6c3.8,4.8,6.1,11,6.1,17.7c0,15.6-12.4,28.2-27.6,28.2
	c-13.1,0-24-9.3-26.9-21.8V14.8c0-1.1,0.1-2.1,0.4-3.2c0.1-0.4,0.3-0.9,0.4-1.3C95,5.5,99.7,2,105.2,2z"/>
</svg>
