<?xml version="1.0" encoding="utf-8"?>
<!-- Generator: Adobe Illustrator 23.0.3, SVG Export Plug-In . SVG Version: 6.00 Build 0)  -->
<svg version="1.1" id="Camada_1" xmlns="http://www.w3.org/2000/svg" xmlns:xlink="http://www.w3.org/1999/xlink" x="0px" y="0px"
	 viewBox="0 0 335.6 51.6" style="enable-background:new 0 0 335.6 51.6;" xml:space="preserve">
<style type="text/css">
	.st0{fill:#4F4F4F;}
	.st1{fill-rule:evenodd;clip-rule:evenodd;fill:#D40000;}
	.st2{display:none;fill:none;stroke:#FFFFFF;stroke-width:0.5669;stroke-miterlimit:22.9256;}
</style>
<g>
	<path class="st0" d="M73.8,39.9c-3.4,0-6-1.3-7.8-4c-1.8-2.7-2.8-5.9-2.8-9.7c0-3.9,0.9-7.1,2.8-9.6c1.9-2.6,4.5-3.9,8-3.9
		c3.5,0,6.1,1.4,7.9,4.1c1.8,2.8,2.7,5.9,2.7,9.4c0,3.8-0.9,7.1-2.8,9.7C80,38.6,77.3,39.9,73.8,39.9z M74,17.7
		c-3.1,0-4.6,2.8-4.6,8.5c0,5.7,1.5,8.6,4.6,8.6c3,0,4.5-2.8,4.5-8.5C78.4,20.6,76.9,17.7,74,17.7z"/>
	<path class="st0" d="M94.4,34.3h10v5.2H88.4V13.1h6V34.3z"/>
	<path class="st0" d="M113.2,13.1v26.4h-5.9V13.1H113.2z"/>
	<path class="st0" d="M136.9,13.1l-7.6,26.4H123l-7.5-26.4h6.3l5,18.9l5.2-18.9H136.9z"/>
	<path class="st0" d="M157.1,18.1h-11.9v5.4h9.4v5h-9.4v5.8h11.9v5.2h-17.9V13.1h17.9V18.1z"/>
	<path class="st0" d="M166.5,13.1v26.4h-5.9V13.1H166.5z"/>
	<path class="st0" d="M177.4,29v10.5h-5.9V13.1h11c2,0,3.7,0.2,4.9,0.7c1.2,0.5,2.3,1.4,3.1,2.7c0.8,1.3,1.2,2.8,1.2,4.4
		c0,3.2-1.5,5.4-4.4,6.8l4.6,11.7h-6.5L181.6,29H177.4z M177.4,17.8v6.7h3.6c1.2,0,2-0.1,2.6-0.3s1-0.6,1.4-1.2
		c0.4-0.6,0.6-1.3,0.6-2.1c0-0.7-0.2-1.4-0.6-2s-0.9-0.9-1.4-1.1c-0.5-0.1-1.4-0.2-2.8-0.2H177.4z"/>
	<path class="st0" d="M208.6,13.1l7.8,26.4h-6.3l-1.5-5.4h-8.1l-1.6,5.4h-5.2l8-26.4H208.6z M201.8,29.2h5.3l-2.6-9.3L201.8,29.2z"
		/>
	<path class="st0" d="M244.4,13.1v5.2h-6.2v21.2h-6V18.3H226v-5.2H244.4z"/>
	<path class="st0" d="M252.8,29v10.5h-5.9V13.1h11c2,0,3.7,0.2,4.9,0.7c1.2,0.5,2.3,1.4,3.1,2.7c0.8,1.3,1.2,2.8,1.2,4.4
		c0,3.2-1.5,5.4-4.4,6.8l4.6,11.7h-6.5L257,29H252.8z M252.8,17.8v6.7h3.6c1.2,0,2-0.1,2.6-0.3s1-0.6,1.4-1.2
		c0.4-0.6,0.6-1.3,0.6-2.1c0-0.7-0.2-1.4-0.6-2s-0.9-0.9-1.4-1.1c-0.5-0.1-1.4-0.2-2.8-0.2H252.8z"/>
</g>
<g>
	<path class="st0" d="M291,13.1v16.4c0,2.7-0.3,4.6-0.9,5.9c-0.6,1.3-1.6,2.4-3.2,3.2s-3.5,1.2-5.9,1.2s-4.3-0.4-5.8-1.1
		c-1.4-0.7-2.5-1.8-3.2-3.2c-0.7-1.4-1.1-3.4-1.1-6V13.1h6.4v16.4c0,1.4,0.1,2.5,0.3,3.1c0.2,0.7,0.7,1.2,1.4,1.6
		c0.7,0.4,1.5,0.6,2.5,0.6c1.1,0,2-0.2,2.7-0.6c0.7-0.4,1.2-0.9,1.4-1.5c0.2-0.6,0.3-1.7,0.3-3.2V13.1H291z"/>
	<path class="st0" d="M313,18.9l-5,1.8c-0.7-2.1-2.1-3.1-4.3-3.1c-2.3,0-3.5,0.8-3.5,2.4c0,0.6,0.2,1.2,0.7,1.6
		c0.4,0.4,1.4,0.8,2.9,1.1c2.6,0.5,4.4,1.1,5.6,1.6c1.2,0.6,2.2,1.4,3,2.7c0.8,1.2,1.2,2.6,1.2,4.1c0,2.4-0.9,4.4-2.6,6.2
		c-1.7,1.7-4.3,2.6-7.8,2.6c-2.6,0-4.8-0.6-6.6-1.8c-1.8-1.2-3-3.1-3.6-5.5l5.4-1.3c0.6,2.5,2.3,3.7,5.1,3.7c1.3,0,2.3-0.3,3-0.8
		s1-1.2,1-2c0-0.8-0.3-1.4-0.9-1.8c-0.6-0.4-1.8-0.8-3.5-1.2c-3.2-0.7-5.5-1.6-6.8-2.9c-1.4-1.2-2-3-2-5.3c0-2.3,0.8-4.3,2.4-5.9
		c1.6-1.6,3.8-2.4,6.6-2.4C308.5,12.7,311.6,14.8,313,18.9z"/>
</g>
<g>
	<path class="st0" d="M333.6,13.1v5.2h-6.2v21.2h-6V18.3h-6.2v-5.2H333.6z"/>
</g>
<path class="st1" d="M32.8,50.5H7.2c-3.8,0-6.9-3.1-6.9-6.9V30.8c4,3.3,9,5.3,14.6,5.3c0.2,0,0.5,0,0.7,0h17.2V50.5z M48.3,36.1v7.4
	c0,3.8-3.1,6.9-6.9,6.9h-1.5V36.1H48.3z M36.1,2.8h5.2c3.8,0,6.9,3.1,6.9,6.9v19H31.5c4-4.3,6.5-10.1,6.5-16.6
	C38,8.9,37.3,5.7,36.1,2.8z M7.2,2.8h19.2c2.1,2.6,3.3,5.9,3.3,9.5c0,8.4-6.7,15.2-14.9,15.2c-7.1,0-13-5-14.5-11.8V9.8
	c0-0.6,0.1-1.2,0.2-1.7c0.1-0.2,0.1-0.5,0.2-0.7C1.7,4.7,4.3,2.8,7.2,2.8z"/>
<rect x="1.3" y="2.3" class="st2" width="47.3" height="0.3"/>
</svg>
