<svg width="334" height="48" viewBox="0 0 334 48" fill="none" xmlns="http://www.w3.org/2000/svg">
<g clip-path="url(#clip0)">
<path d="M73.8 37C70.4 37 67.8 35.7 66 33C64.2 30.3 63.2 27.1 63.2 23.3C63.2 19.4 64.1 16.2 66 13.7C67.9 11.1 70.5 9.79999 74 9.79999C77.5 9.79999 80.1 11.2 81.9 13.9C83.7 16.7 84.5999 19.8 84.5999 23.3C84.5999 27.1 83.7 30.4 81.8 33C80 35.7 77.3 37 73.8 37ZM74 14.9C70.9 14.9 69.4 17.7 69.4 23.4C69.4 29.1 70.9 32 74 32C77 32 78.5 29.2 78.5 23.5C78.4 17.7 76.9 14.9 74 14.9Z" fill="#4F4F4F"/>
<path d="M94.3999 31.4H104.4V36.6H88.3999V10.2H94.3999V31.4Z" fill="#4F4F4F"/>
<path d="M113.2 10.2V36.6H107.3V10.2H113.2Z" fill="#4F4F4F"/>
<path d="M136.9 10.2L129.3 36.6H123L115.5 10.2H121.8L126.8 29.1L132 10.2H136.9V10.2Z" fill="#4F4F4F"/>
<path d="M157.1 15.3H145.2V20.7H154.6V25.7H145.2V31.5H157.1V36.7H139.2V10.2H157.1V15.3Z" fill="#4F4F4F"/>
<path d="M166.5 10.2V36.6H160.6V10.2H166.5Z" fill="#4F4F4F"/>
<path d="M177.4 26.2V36.7H171.5V10.2H182.5C184.5 10.2 186.2 10.4 187.4 10.9C188.6 11.4 189.7 12.3 190.5 13.6C191.3 14.9 191.7 16.4 191.7 18C191.7 21.2 190.2 23.4 187.3 24.8L191.9 36.5H185.4L181.5 26H177.4V26.2ZM177.4 14.9V21.6H181C182.2 21.6 183 21.5 183.6 21.3C184.2 21.1 184.6 20.7 185 20.1C185.4 19.5 185.6 18.8 185.6 18C185.6 17.3 185.4 16.6 185 16C184.6 15.4 184.1 15.1 183.6 14.9C183.1 14.8 182.2 14.7 180.8 14.7H177.4V14.9Z" fill="#4F4F4F"/>
<path d="M208.6 10.2L216.4 36.6H210.1L208.6 31.2H200.5L198.9 36.6H193.7L201.7 10.2H208.6V10.2ZM201.8 26.3H207.1L204.5 17L201.8 26.3Z" fill="#4F4F4F"/>
<path d="M244.4 10.2V15.4H238.2V36.6H232.2V15.5H226V10.3H244.4V10.2Z" fill="#4F4F4F"/>
<path d="M252.8 26.2V36.7H246.9V10.2H257.9C259.9 10.2 261.6 10.4 262.8 10.9C264 11.4 265.1 12.3 265.9 13.6C266.7 14.9 267.1 16.4 267.1 18C267.1 21.2 265.6 23.4 262.7 24.8L267.3 36.5H260.8L257 26.2H252.8ZM252.8 14.9V21.6H256.4C257.6 21.6 258.4 21.5 259 21.3C259.6 21.1 260 20.7 260.4 20.1C260.8 19.5 261 18.8 261 18C261 17.3 260.8 16.6 260.4 16C260 15.4 259.5 15.1 259 14.9C258.5 14.8 257.6 14.7 256.2 14.7H252.8V14.9Z" fill="#4F4F4F"/>
<path d="M291 10.2V26.6C291 29.3 290.7 31.2 290.1 32.5C289.5 33.8 288.5 34.9 286.9 35.7C285.3 36.5 283.5 37 281 37C278.5 37 276.7 36.6 275.2 35.9C273.8 35.2 272.7 34.1 272 32.7C271.3 31.3 270.9 29.3 270.9 26.7V10.2H277.3V26.6C277.3 28 277.4 29.1 277.6 29.7C277.8 30.4 278.3 30.9 279 31.3C279.7 31.7 280.5 31.9 281.5 31.9C282.6 31.9 283.5 31.7 284.2 31.3C284.9 30.9 285.4 30.4 285.6 29.8C285.8 29.2 285.9 28.1 285.9 26.6V10.2H291Z" fill="#4F4F4F"/>
<path d="M313 16L308 17.8C307.3 15.7 305.9 14.7 303.7 14.7C301.4 14.7 300.2 15.5 300.2 17.1C300.2 17.7 300.4 18.3 300.9 18.7C301.3 19.1 302.3 19.5 303.8 19.8C306.4 20.3 308.2 20.9 309.4 21.4C310.6 22 311.6 22.8 312.4 24.1C313.2 25.3 313.6 26.7 313.6 28.2C313.6 30.6 312.7 32.6 311 34.4C309.3 36.1 306.7 37 303.2 37C300.6 37 298.4 36.4 296.6 35.2C294.8 34 293.6 32.1 293 29.7L298.4 28.4C299 30.9 300.7 32.1 303.5 32.1C304.8 32.1 305.8 31.8 306.5 31.3C307.2 30.8 307.5 30.1 307.5 29.3C307.5 28.5 307.2 27.9 306.6 27.5C306 27.1 304.8 26.7 303.1 26.3C299.9 25.6 297.6 24.7 296.3 23.4C294.9 22.2 294.3 20.4 294.3 18.1C294.3 15.8 295.1 13.8 296.7 12.2C298.3 10.6 300.5 9.79999 303.3 9.79999C308.5 9.79999 311.6 11.9 313 16Z" fill="#4F4F4F"/>
<path d="M333.6 10.2V15.4H327.4V36.6H321.4V15.5H315.2V10.3H333.6V10.2Z" fill="#4F4F4F"/>
<path fill-rule="evenodd" clip-rule="evenodd" d="M32.8 47.6H7.20005C3.40005 47.6 0.300049 44.5 0.300049 40.7V27.9C4.30005 31.2 9.30005 33.2 14.9 33.2C15.1 33.2 15.4 33.2 15.6 33.2H32.8V47.6ZM48.3 33.3V40.7C48.3 44.5 45.2001 47.6 41.4001 47.6H39.9001V33.3H48.3ZM36.1 0H41.3C45.1 0 48.2001 3.1 48.2001 6.9V25.9H31.5C35.5 21.6 38 15.8 38 9.3C38 6 37.3 2.9 36.1 0ZM7.20005 0H26.4C28.5 2.6 29.7001 5.9 29.7001 9.5C29.7001 17.9 23 24.7 14.8 24.7C7.70005 24.7 1.80005 19.7 0.300049 12.9V6.9C0.300049 6.3 0.400049 5.7 0.500049 5.2C0.600049 5 0.700049 4.8 0.700049 4.5C1.70005 1.9 4.30005 0 7.20005 0Z" fill="#D40000"/>
</g>
<defs>
<clipPath id="clip0">
<rect width="333.9" height="47.6" fill="white"/>
</clipPath>
</defs>
</svg>
